<svg width="33" height="848" viewBox="0 0 33 848" fill="none" xmlns="http://www.w3.org/2000/svg"><mask id="a" maskUnits="userSpaceOnUse" x="-3" y="0" width="36" height="848"><path d="M15 0v848" stroke="#F4B223" stroke-width="36"/></mask><g mask="url(#a)" stroke="#E36F1E" stroke-width="2"><circle cx="144.853" cy="423.853" r="117.917"/><circle cx="144.853" cy="423.853" r="125.519"/><circle cx="144.853" cy="423.853" r="133.121"/><circle cx="144.853" cy="423.854" r="140.723"/><circle cx="144.853" cy="423.852" r="148.325"/><circle cx="144.853" cy="423.853" r="155.927"/><circle cx="144.853" cy="423.853" r="163.529"/><circle cx="144.853" cy="423.854" r="171.131"/><circle cx="144.853" cy="423.852" r="178.733"/><circle cx="144.853" cy="423.853" r="186.335"/><circle cx="144.853" cy="423.853" r="193.937"/><circle cx="144.853" cy="423.853" r="201.539"/><circle cx="144.853" cy="423.854" r="209.141"/><circle cx="144.853" cy="423.852" r="216.743"/><circle cx="144.853" cy="423.853" r="224.345"/><circle cx="144.853" cy="423.853" r="231.947"/><circle cx="144.853" cy="423.854" r="239.549"/><circle cx="144.853" cy="423.852" r="247.151"/><circle cx="144.853" cy="423.853" r="254.753"/><circle cx="144.853" cy="423.853" r="262.355"/><circle cx="144.853" cy="423.853" r="269.957"/><circle cx="144.853" cy="423.854" r="277.559"/><circle cx="144.853" cy="423.852" r="285.161"/><circle cx="144.853" cy="423.853" r="292.763"/><circle cx="144.853" cy="423.853" r="300.365"/><circle cx="144.853" cy="423.854" r="307.967"/><circle cx="144.853" cy="423.852" r="315.569"/><circle cx="144.853" cy="423.853" r="323.171"/><circle cx="144.853" cy="423.853" r="330.773"/><circle cx="144.853" cy="423.854" r="338.375"/><circle cx="144.853" cy="423.854" r="345.977"/><circle cx="144.853" cy="423.852" r="353.579"/><circle cx="144.853" cy="423.853" r="361.181"/><circle cx="144.853" cy="423.853" r="368.783"/><circle cx="144.853" cy="423.854" r="376.385"/><circle cx="144.853" cy="423.852" r="383.987"/><circle cx="144.853" cy="423.853" r="391.589"/><circle cx="144.853" cy="423.853" r="399.191"/><circle cx="144.853" cy="423.854" r="406.793"/><circle cx="144.853" cy="423.852" r="414.395"/><circle cx="144.853" cy="423.852" r="421.997"/><circle cx="144.853" cy="423.853" r="429.599"/><circle cx="144.853" cy="423.853" r="437.201"/><circle cx="144.853" cy="423.854" r="444.803"/><circle cx="144.853" cy="423.852" r="452.405"/><circle cx="144.853" cy="423.853" r="460.007"/><circle cx="144.853" cy="423.853" r="467.609"/><circle cx="144.853" cy="423.854" r="475.211"/><circle cx="144.853" cy="423.852" r="482.813"/><circle cx="144.853" cy="423.853" r="490.415"/><circle cx="144.853" cy="423.853" r="498.017"/><circle cx="144.853" cy="423.853" r="505.619"/><circle cx="144.853" cy="423.853" r="505.619"/><circle cx="144.853" cy="423.854" r="513.221"/><circle cx="144.853" cy="423.852" r="520.823"/><circle cx="144.853" cy="423.853" r="528.425"/><circle cx="144.853" cy="423.853" r="536.027"/><circle cx="144.853" cy="423.854" r="543.629"/><circle cx="144.853" cy="423.852" r="551.231"/><circle cx="144.853" cy="423.853" r="558.833"/><circle cx="144.853" cy="423.853" r="566.435"/><circle cx="144.853" cy="423.853" r="574.037"/><circle cx="144.853" cy="423.854" r="581.639"/><circle cx="144.853" cy="423.852" r="589.241"/><circle cx="144.853" cy="423.853" r="596.843"/><circle cx="144.853" cy="423.853" r="604.445"/><circle cx="144.853" cy="423.854" r="612.047"/><circle cx="144.853" cy="423.852" r="619.649"/><circle cx="144.853" cy="423.853" r="627.251"/><circle cx="144.853" cy="423.853" r="634.853"/></g></svg>